<?xml version="1.0" encoding="utf-8"?>
<!-- Generator: Adobe Illustrator 27.5.0, SVG Export Plug-In . SVG Version: 6.00 Build 0)  -->
<svg version="1.1" id="Layer_1" xmlns="http://www.w3.org/2000/svg" xmlns:xlink="http://www.w3.org/1999/xlink" x="0px" y="0px"
	 viewBox="0 0 5000 2916" style="enable-background:new 0 0 5000 2916;" xml:space="preserve">
<g>
	<rect x="0" style="fill-rule:evenodd;clip-rule:evenodd;fill:#FFFFFF;" width="5000" height="2916"/>
	<path style="fill:#99FFFF;" d="M0.481,1412.922c264.678,54.026,673.439,214.86,1106.834,385.39
		c735.549,289.414,1542.096,606.764,1834.573,477.014c177.477-78.731,165.499-322.588-166.974-838.182l-0.037-0.058l-0.024-0.049
		c-84.143-190.736-27.414-292.193,116.255-335.796c284.275-86.276,909.61,54.839,1456.099,178.16
		c246.526,55.633,477.005,107.644,652.793,133.509l-0.347,1.645c-175.905-25.884-406.415-77.901-652.976-133.54
		c-546.205-123.259-1171.212-264.299-1454.883-178.206c-142.493,43.246-198.69,144.03-115.071,333.613
		c333.122,516.619,344.66,761.165,166.109,840.375c-293.371,130.145-1100.394-187.393-1836.378-476.977
		C673.155,1629.327,264.484,1468.528,0,1414.543L0.481,1412.922z M0.481,1383.683c261.028,53.281,659.059,206.95,1081.162,369.914
		c725.554,280.118,1522.271,587.708,1815.417,459.843c176.042-76.787,170.312-311.096-141.974-803.654l-0.038-0.056l-0.025-0.065
		c-85.285-208.455-21.171-316.097,133.482-359.628c289.037-81.356,894.86,62.034,1431.523,189.052
		c256.554,60.721,497.296,117.703,679.972,144.578l-0.347,1.647c-182.784-26.894-423.573-83.886-680.175-144.617
		C3783.097,1113.743,3177.59,970.43,2889.15,1051.617c-153.468,43.196-217.027,150.178-132.247,357.453
		c312.928,493.589,318.217,728.59,141.093,805.845c-294.032,128.254-1091.22-179.519-1817.204-459.804
		C658.775,1592.18,260.823,1438.542,0,1385.302L0.481,1383.683z M0.481,1354.446c257.207,52.501,644.351,198.996,1054.996,354.382
		c715.668,270.806,1502.759,568.639,1796.814,442.76c174.666-74.77,175.195-299.518-117.034-769.161l-0.044-0.069l-0.023-0.06
		c-86.148-226.318-14.863-339.97,150.236-383.205c293.114-76.759,882.375,69.169,1410.296,199.909
		c265.455,65.741,515.397,127.639,704.277,155.43l-0.347,1.645c-188.993-27.806-438.993-89.719-704.506-155.474
		c-527.639-130.67-1116.585-276.52-1409.113-199.916c-163.909,42.923-234.617,155.925-148.944,381.052
		c292.851,470.667,291.874,696.099,116.123,771.332c-294.92,126.249-1082.478-171.759-1798.571-442.728
		C644.097,1554.991,257.043,1408.533,0,1356.065L0.481,1354.446z M0.481,1325.205c253.236,51.692,629.287,190.991,1028.261,338.781
		c705.898,261.481,1483.599,549.56,1778.824,425.792c173.365-72.675,180.173-287.839-92.136-734.713l-0.039-0.064l-0.028-0.074
		c-86.755-244.278-8.536-363.77,166.46-406.529c296.64-72.479,871.722,76.207,1391.881,210.69
		c273.465,70.702,531.747,137.479,726.296,166.105l-0.347,1.644c-194.667-28.643-453.015-95.438-726.548-166.157
		c-519.884-134.414-1094.662-283.018-1390.716-210.682c-173.802,42.465-251.426,161.317-165.122,404.385
		c272.923,447.907,265.658,663.75,91.204,736.883c-296.075,124.122-1074.235-164.126-1780.547-425.762
		C629.04,1517.75,253.077,1378.482,0,1326.826L0.481,1325.205z M0.481,1295.966c249.068,50.841,613.797,182.923,1000.865,323.097
		c696.25,252.137,1464.818,530.465,1761.522,408.964c172.154-70.5,185.274-276.055-67.267-700.32l-0.039-0.067l-0.028-0.078
		c-87.134-262.302-2.24-387.489,182.13-429.624c299.718-68.5,862.596,83.115,1375.885,221.372
		c280.752,75.624,546.667,147.249,746.45,176.643l-0.347,1.646c-199.912-29.414-465.898-101.061-746.725-176.7
		C3739.909,982.713,3177.33,831.179,2878.2,899.545c-183.172,41.861-267.456,166.418-180.751,427.496
		c253.136,425.298,239.559,631.533,66.307,702.482c-297.538,121.844-1066.556-156.646-1763.211-408.934
		C613.563,1480.448,248.914,1348.395,0,1297.584L0.481,1295.966z M0.481,1266.73c244.674,49.941,597.814,174.786,972.693,307.315
		c686.73,242.779,1446.451,511.359,1744.997,392.299c171.07-68.222,190.542-264.156-42.398-665.998l-0.044-0.077l-0.023-0.073
		c-87.306-280.352,4.008-411.108,197.24-452.507c302.434-64.795,854.76,89.897,1361.984,231.96
		c287.445,80.505,560.402,156.954,765.069,187.067l-0.347,1.644c-204.787-30.131-477.828-106.603-765.358-187.132
		C3727.339,939.242,3175.307,784.632,2873.45,849.303c-192.03,41.142-282.722,171.275-195.821,450.405
		c233.518,402.87,213.576,599.477,41.408,668.137c-299.369,119.388-1059.526-149.347-1746.652-392.265
		C597.585,1443.079,244.517,1318.259,0,1268.348L0.481,1266.73z M0.481,1237.488c240.008,48.991,581.24,166.569,943.598,291.425
		c677.341,233.391,1428.532,492.229,1729.348,375.833c170.147-65.838,196.038-252.128-17.481-631.762l-0.044-0.082l-0.023-0.076
		c-87.291-298.413,10.185-434.621,211.798-475.194c304.867-61.352,848.037,96.543,1349.918,242.438
		c293.648,85.363,573.157,166.618,782.406,197.403l-0.347,1.646c-209.383-30.809-488.981-112.088-782.72-197.477
		C3715.32,895.827,3172.438,738.015,2868.148,799.251c-200.407,40.331-297.245,175.931-210.337,473.111
		c214.082,380.673,187.715,567.628,16.467,633.892c-301.625,116.711-1053.244-142.275-1730.971-375.798
		C581.019,1405.622,239.85,1288.065,0,1239.107L0.481,1237.488z M0.481,1208.249c235.001,47.969,563.955,158.253,913.4,275.404
		c668.081,223.975,1411.094,473.072,1714.698,359.608c169.433-63.32,201.84-239.949,7.535-597.64l-0.039-0.071l-0.025-0.088
		c-87.109-316.463,16.275-458.028,225.817-497.709c307.076-58.152,842.285,103.061,1339.478,252.823
		c299.436,90.196,585.083,176.238,798.655,207.662l-0.347,1.644c-213.732-31.447-499.466-117.515-798.995-207.738
		c-496.924-149.682-1031.847-310.807-1338.349-252.766c-208.328,39.453-311.061,180.419-224.319,495.636
		c194.857,358.738,161.962,536.034-8.583,599.769c-304.385,113.755-1047.817-135.48-1716.274-359.58
		C563.756,1368.073,234.867,1257.811,0,1209.87L0.481,1208.249z M0.481,1179.01c229.607,46.867,545.826,149.815,881.869,259.217
		c658.95,214.525,1394.178,453.884,1701.184,343.697c169.001-60.658,208.07-227.613,32.75-563.671l-0.044-0.085l-0.019-0.072
		c-86.778-334.492,22.274-481.334,239.319-520.074c309.108-55.169,837.383,109.457,1330.471,263.118
		c304.878,95.01,596.3,185.827,813.988,217.857l-0.347,1.644c-217.868-32.056-509.38-122.901-814.351-217.941
		c-492.819-153.578-1020.807-318.113-1329.344-263.046c-215.834,38.523-324.222,184.777-237.786,518.03
		c175.843,337.1,136.277,504.709-33.843,565.765c-307.77,110.462-1043.402-129.027-1702.711-343.669
		C545.632,1330.401,229.472,1227.469,0,1180.631L0.481,1179.01z M0.481,1149.772c223.727,45.665,526.647,141.23,848.699,242.828
		c649.92,205.031,1377.791,434.653,1688.96,328.172c168.961-57.819,214.895-215.087,58.314-529.883l-0.034-0.071l-0.021-0.084
		c-86.313-352.486,28.17-504.535,252.328-542.297c311.008-52.392,833.23,115.733,1322.737,273.324
		c310.013,99.806,606.9,195.387,828.536,227.997l-0.347,1.646c-221.811-32.638-518.797-128.249-828.913-228.089
		c-489.243-157.507-1011.186-325.541-1321.62-273.244c-222.945,37.556-336.755,189.023-250.77,540.257
		c157.087,315.857,110.645,473.78-59.448,531.985c-311.906,106.733-1040.17-123.012-1690.436-328.154
		C526.46,1292.578,223.585,1197.027,0,1151.39L0.481,1149.772z M0.481,1120.533c217.225,44.34,506.163,132.462,813.485,226.188
		c640.954,195.479,1361.926,415.359,1678.195,313.146c169.468-54.769,222.572-202.347,84.46-496.349l-0.033-0.072l-0.016-0.069
		c-85.731-370.445,33.966-527.642,264.873-564.403c312.803-49.802,829.761,121.9,1316.16,283.455
		c314.896,104.589,616.981,204.924,842.394,238.092l-0.347,1.645c-225.609-33.195-527.796-133.565-842.793-238.189
		c-486.134-161.465-1002.81-333.074-1315.037-283.364c-229.697,36.57-348.713,193.191-263.292,562.384
		c138.593,295.069,84.959,443.29-85.646,498.426c-316.979,102.444-1038.326-117.552-1679.612-313.132
		C505.994,1254.574,217.096,1166.466,0,1122.154L0.481,1120.533z M0.481,1091.294c209.932,42.851,484.013,123.453,775.671,209.223
		c631.969,185.848,1346.519,395.98,1669.076,298.773c170.752-51.46,231.499-189.346,111.56-463.14l-0.024-0.055l-0.018-0.081
		c-85.036-388.352,39.665-550.645,276.989-586.396c314.521-47.381,826.886,127.969,1310.604,293.516
		c319.549,109.362,626.595,214.445,855.66,248.148l-0.347,1.645c-229.266-33.734-536.418-138.854-856.075-248.25
		c-483.459-165.458-995.547-340.712-1309.488-293.418c-236.11,35.568-360.124,197.292-275.382,584.383
		c120.396,274.883,59.109,413.41-112.795,465.217c-323.235,97.412-1038.143-112.826-1670.428-298.767
		C483.873,1216.333,209.835,1135.745,0,1092.915L0.481,1091.294z M0.481,1062.054c201.634,41.159,459.725,114.137,734.495,191.833
		c622.818,176.109,1331.382,376.469,1661.756,285.258c173.188-47.814,242.298-176.021,140.226-430.373l-0.03-0.072l-0.009-0.049
		c-84.249-406.214,45.266-573.562,288.7-608.297C3141.795,455.242,3650.17,634.303,4131.6,803.87
		c324.007,114.123,635.81,223.949,868.4,258.17l-0.347,1.647c-232.808-34.257-544.721-144.118-868.842-258.281
		c-481.162-169.475-989.257-348.437-1304.853-303.406c-242.227,34.56-371.045,201.355-287.065,606.326
		c102.483,255.439,32.812,384.265-141.531,432.398c-331.021,91.389-1039.92-109.063-1663.031-285.258
		C459.602,1177.783,201.554,1104.816,0,1063.673L0.481,1062.054z M0.481,1032.815c191.989,39.189,432.587,104.407,688.84,173.866
		c613.197,166.21,1316.08,356.729,1656.282,272.899c177.389-43.71,256.027-162.247,171.52-398.187l-0.016-0.046l-0.011-0.055
		c-83.375-424.026,50.77-596.391,300.03-630.11c317.792-42.989,822.709,139.841,1302.188,313.46
		c328.298,118.875,644.67,233.433,880.686,268.161l-0.347,1.645c-236.24-34.759-552.726-149.359-881.141-268.277
		c-479.216-173.524-983.853-356.253-1301.065-313.343c-248.051,33.553-381.494,205.373-298.38,628.146
		c84.89,237.056,5.666,356.208-172.897,400.206c-340.798,83.978-1043.999-106.627-1657.47-272.912
		C432.479,1138.816,191.91,1073.609,0,1034.436L0.481,1032.815z M0.481,1003.576c180.461,36.837,401.525,94.092,637.028,155.086
		c602.548,156.056,1299.669,336.608,1652.396,262.135c184.446-38.941,274.583-147.81,207.381-366.787v-0.002l-0.014-0.077
		c-82.425-441.781,56.183-619.139,311.013-651.846c319.382-40.995,821.304,145.656,1299.153,323.353
		c332.433,123.62,653.211,242.909,892.563,278.127l-0.347,1.645c-239.582-35.252-560.479-154.584-893.034-278.251
		c-477.589-177.6-979.237-364.149-1298.027-323.23c-253.62,32.552-391.52,209.367-309.351,649.88
		c67.554,220.139-23.198,329.617-208.841,368.81c-353.271,74.586-1050.687-106.039-1653.49-262.163
		C401.431,1099.266,180.39,1042.018,0,1005.197L0.481,1003.576z M0.481,974.338c166.22,33.931,364.852,82.928,576.423,135.114
		c589.71,145.464,1280.002,315.739,1648.922,253.591c196.436-33.088,301.63-132.231,251.63-336.426l-0.011-0.042
		c-81.407-459.49,61.507-641.816,321.676-673.527c320.94-39.117,820.295,151.404,1296.804,333.208
		c336.432,128.36,661.475,252.376,904.076,288.07l-0.347,1.644c-242.839-35.73-568.002-159.791-904.563-288.199
		c-476.24-181.702-975.321-372.117-1295.678-333.07c-258.967,31.563-401.166,213.364-319.977,671.631
		c50.264,205.346-55.584,305.054-253.215,338.344c-369.41,62.231-1059.956-108.106-1649.882-253.624
		C364.794,1058.873,166.19,1009.882,0,975.958L0.481,974.338z M0.481,945.099c147.906,30.192,319.752,70.451,502.596,113.286
		c572.073,134.02,1251.839,293.268,1641.898,248.095c217.78-25.222,345.135-114.271,312.646-307.267
		c-80.325-477.139,66.749-664.414,332.035-695.14c322.498-37.348,819.661,157.086,1295.083,343.02
		C4425.054,780.186,4754.228,908.925,5000,945.087l-0.347,1.644c-246.032-36.199-575.33-164.986-915.772-298.13
		c-475.159-185.83-972.041-380.155-1293.947-342.874c-264.087,30.585-410.439,217.34-330.323,693.258
		c32.69,194.193-95.367,283.783-314.362,309.146c-390.479,45.224-1070.46-114.077-1642.715-248.139
		C319.695,1017.157,147.85,976.897,0,946.72L0.481,945.099z M0.481,1559.117c281.36,57.43,741.827,253.908,1229.695,462.075
		c786.887,335.756,1645.092,701.945,1936.824,563.873c179.257-84.839,144.476-360.582-252.575-951.74
		c359.537,549.498,383.963,809.021,208.403,891.216c-292.534,136.959-1140.621-219.666-1917.537-546.362
		C728.21,1777.564,277.976,1588.238,0,1531.496l0.481-1.618c278.198,56.785,728.529,246.152,1205.715,446.811
		c776.461,326.505,1624.051,682.922,1915.646,546.401c179.123-83.86,148.228-354.292-238.205-932.851
		c348.99,536.989,369.522,791.167,194.09,872.34c-292.516,135.353-1130.111-211.498-1896.666-528.929
		C714.75,1740.548,274.736,1558.338,0,1502.26l0.481-1.621c274.967,56.126,715.072,238.376,1181.476,431.516
		c766.105,317.244,1603.208,663.891,1894.797,528.972c179.169-82.906,152.214-348.144-224.208-914.753
		c339.007,525.087,355.64,774.093,180.151,854.26c-292.633,133.684-1119.882-203.394-1876.156-511.553
		C701.115,1703.508,271.43,1528.423,0,1473.018l0.481-1.619c271.628,55.444,701.41,230.568,1156.942,416.185
		c755.826,307.976,1582.582,644.855,1874.308,511.588c179.134-81.834,156.292-341.514-209.027-894.98
		c327.986,512.055,340.493,755.467,165.032,834.511c-292.92,131.956-1109.969-195.352-1856.052-494.229
		C687.253,1666.437,268.012,1498.489,0,1443.782l0.481-1.618c268.21,54.746,687.546,222.731,1132.078,400.807
		c745.643,298.702,1562.206,625.816,1854.216,494.269c178.954-80.616,160.737-333.995-192.032-872.736l-0.042-0.064l-0.014-0.029
		c-82.701-173.22-33.529-268.295,98.634-311.703c278.677-91.53,927.223,47.656,1484.718,167.301
		c235.035,50.443,453.881,97.41,621.962,122.14l-0.347,1.644c-168.111-24.734-387.019-71.716-622.119-122.17
		c-557.197-119.582-1205.397-258.694-1483.477-167.359c-130.995,43.025-179.659,137.418-97.509,309.512
		c5.798,8.854,11.509,17.634,17.112,26.323c-79.751-154.928-38.13-242.934,81.606-285.673
		c272.098-97.123,948.628,40.597,1518.366,156.577c221.678,45.127,427.184,86.963,586.367,110.382l-0.347,1.646
		c-159.218-23.428-364.773-65.271-586.501-110.409c-569.436-115.918-1245.607-253.567-1517.088-156.661
		c-119.021,42.482-160.048,130.273-79.703,285.143c5.143,7.744,10.199,15.416,15.203,23.042
		c-75.173-136.048-40.912-216.276,65.568-257.781c264.368-103.05,975.259,33.857,1558.492,146.179
		c205.767,39.63,395.643,76.197,544.376,98.083l-0.347,1.644c-148.763-21.888-338.674-58.464-544.478-98.099
		c-582.935-112.264-1293.458-249.1-1557.193-146.299c-106.646,41.571-140.005,122.542-61.82,260.554
		c3.74,5.558,7.38,11.034,11.053,16.535c-67.618-115.831-40.157-187.09,51.925-226.507
		c255.354-109.314,1009.537,27.764,1607.374,136.425c186.311,33.862,357.436,64.966,493.486,84.984l-0.347,1.646
		c-136.124-20.028-307.253-51.134-493.565-84.998c-597.528-108.603-1351.322-245.612-1606.028-136.575
		c-93.997,40.239-119.761,114.206-44.072,235.845l-0.002,0.002c0.694,1.02,1.359,2.016,2.053,3.035
		c-54.062-92.463-32.123-152.41,43.555-188.227c245.002-115.957,1055.805,22.88,1668.789,127.842
		c161.604,27.671,309.455,52.988,429.615,70.668l-0.347,1.646c-120.062-17.665-267.986-42.995-429.67-70.679
		c-612.666-104.909-1423.048-243.672-1667.396-128.027c-81.228,38.442-99.607,105.223-26.795,211.064
		c435.644,633.258,478.42,925.271,292.199,1013.408c-292.675,138.518-1151.386-227.886-1938.738-563.841
		C741.495,1814.554,281.131,1618.122,0,1560.735L0.481,1559.117z"/>
</g>
</svg>
